<?xml version="1.0" ?><!DOCTYPE svg  PUBLIC '-//W3C//DTD SVG 1.1//EN'  'http://www.w3.org/Graphics/SVG/1.1/DTD/svg11.dtd'><svg enable-background="new 0 0 70 70" height="70px" id="Layer_1" version="1.1" viewBox="0 0 70 70" width="70px" xml:space="preserve" xmlns="http://www.w3.org/2000/svg" xmlns:xlink="http://www.w3.org/1999/xlink"><path d="M66.916,58.207H4.583V10.293c0-0.829-0.671-1.5-1.5-1.5s-1.5,0.671-1.5,1.5v49.414c0,0.828,0.671,1.5,1.5,1.5h63.833  c0.828,0,1.5-0.672,1.5-1.5S67.744,58.207,66.916,58.207z"/><path d="M9.589,44.677c0.43,0,0.856-0.184,1.153-0.54l7.205-8.646l2.918,7.031c0.004,0.01,0.011,0.016,0.015,0.025  c0.053,0.12,0.121,0.233,0.205,0.338c0.018,0.022,0.038,0.041,0.057,0.063c0.071,0.078,0.151,0.15,0.241,0.214  c0.024,0.018,0.046,0.036,0.071,0.052c0.015,0.01,0.026,0.021,0.042,0.03c0.069,0.04,0.142,0.061,0.214,0.089  c0.044,0.018,0.084,0.041,0.13,0.054c0.135,0.038,0.272,0.061,0.409,0.061c0,0,0,0,0.001,0s0,0,0.001,0  c0.115,0,0.229-0.018,0.344-0.045c0.033-0.008,0.063-0.019,0.096-0.028c0.045-0.014,0.09-0.022,0.135-0.041  c0.036-0.015,0.067-0.037,0.101-0.055c0.034-0.017,0.067-0.034,0.1-0.054c0.085-0.052,0.165-0.111,0.236-0.177  c0.014-0.014,0.03-0.023,0.043-0.036c0.087-0.087,0.159-0.184,0.222-0.286c0.005-0.01,0.013-0.016,0.019-0.024l9.87-16.963  l3.852,7.569c0.008,0.015,0.02,0.025,0.027,0.039c0.051,0.093,0.112,0.179,0.183,0.26c0.022,0.026,0.044,0.052,0.067,0.075  c0.081,0.082,0.17,0.157,0.272,0.22c0.121,0.075,0.252,0.134,0.39,0.171c0.107,0.03,0.217,0.04,0.326,0.045  c0.024,0.001,0.048,0.01,0.072,0.01c0.121,0,0.242-0.017,0.362-0.047c0.037-0.009,0.071-0.027,0.107-0.04  c0.07-0.023,0.142-0.042,0.21-0.077c0.01-0.005,0.018-0.012,0.027-0.017c0.025-0.014,0.048-0.032,0.072-0.047  c0.079-0.048,0.151-0.101,0.219-0.161c0.024-0.022,0.048-0.045,0.071-0.07c0.071-0.072,0.133-0.15,0.187-0.234  c0.009-0.013,0.021-0.022,0.029-0.036l7.403-12.341l2.32,2.541l0,0l0,0l0.016,0.017c0.038,0.042,0.083,0.074,0.125,0.111  c0.037,0.032,0.07,0.069,0.109,0.097c0.053,0.038,0.109,0.064,0.165,0.095c0.036,0.02,0.07,0.044,0.107,0.061  c0.069,0.03,0.141,0.049,0.213,0.068c0.027,0.007,0.054,0.02,0.082,0.026c0.101,0.021,0.203,0.032,0.306,0.032l0,0  c0.001,0,0.001,0,0.001,0c0.179,0,0.357-0.033,0.527-0.097c0.052-0.02,0.094-0.062,0.144-0.087c0.111-0.057,0.226-0.107,0.323-0.194  l13.893-12.31c0.62-0.549,0.677-1.497,0.128-2.117c-0.55-0.619-1.496-0.678-2.118-0.128L50.85,20.5l-2.697-2.953  c-0.008-0.008-0.019-0.011-0.026-0.02c-0.091-0.095-0.191-0.184-0.31-0.255c-0.037-0.022-0.076-0.035-0.113-0.054  c-0.023-0.011-0.044-0.021-0.067-0.031c-0.16-0.069-0.325-0.108-0.493-0.119c-0.021-0.001-0.04-0.002-0.062-0.003  c-0.171-0.004-0.34,0.021-0.502,0.075c-0.022,0.007-0.043,0.014-0.064,0.023c-0.163,0.062-0.314,0.152-0.449,0.269  c-0.01,0.009-0.022,0.011-0.032,0.02c-0.009,0.008-0.012,0.02-0.021,0.028c-0.095,0.09-0.183,0.19-0.254,0.308l-7.045,11.744  l-3.872-7.608c-0.016-0.032-0.039-0.059-0.057-0.089c-0.03-0.05-0.059-0.101-0.095-0.148c-0.032-0.042-0.07-0.078-0.106-0.115  c-0.031-0.033-0.06-0.067-0.095-0.097c-0.048-0.042-0.102-0.077-0.155-0.112c-0.026-0.018-0.048-0.039-0.075-0.055  c-0.004-0.002-0.008-0.003-0.012-0.005c-0.056-0.032-0.117-0.056-0.176-0.08c-0.032-0.014-0.063-0.031-0.097-0.042  c-0.045-0.015-0.093-0.021-0.14-0.032c-0.048-0.011-0.096-0.026-0.145-0.032c-0.045-0.006-0.091-0.002-0.137-0.004  c-0.05-0.001-0.1-0.007-0.149-0.004c-0.053,0.003-0.104,0.017-0.157,0.026c-0.043,0.007-0.087,0.011-0.129,0.022  c-0.04,0.011-0.078,0.029-0.117,0.043c-0.054,0.02-0.109,0.037-0.161,0.063c-0.005,0.002-0.01,0.003-0.015,0.006  c-0.034,0.018-0.063,0.042-0.095,0.062c-0.048,0.029-0.096,0.056-0.141,0.09c-0.042,0.032-0.078,0.07-0.116,0.106  c-0.033,0.032-0.067,0.061-0.098,0.095c-0.042,0.047-0.075,0.1-0.11,0.152c-0.018,0.027-0.04,0.049-0.057,0.078l-9.732,16.729  l-2.709-6.526c-0.007-0.018-0.019-0.032-0.026-0.049c-0.023-0.05-0.049-0.097-0.078-0.144c-0.024-0.041-0.049-0.081-0.077-0.119  c-0.028-0.038-0.059-0.073-0.091-0.109c-0.036-0.041-0.073-0.08-0.113-0.116c-0.015-0.013-0.025-0.028-0.04-0.041  c-0.02-0.017-0.043-0.027-0.063-0.043c-0.043-0.032-0.087-0.063-0.133-0.09c-0.042-0.025-0.084-0.047-0.127-0.067  c-0.042-0.02-0.085-0.038-0.13-0.054c-0.048-0.017-0.097-0.032-0.146-0.044c-0.044-0.011-0.088-0.02-0.133-0.026  c-0.05-0.008-0.1-0.013-0.151-0.016c-0.045-0.002-0.091-0.003-0.137-0.001c-0.052,0.002-0.104,0.007-0.155,0.015  c-0.043,0.006-0.086,0.014-0.129,0.024c-0.055,0.013-0.109,0.03-0.164,0.049c-0.022,0.008-0.045,0.011-0.068,0.021  c-0.017,0.007-0.031,0.018-0.047,0.025c-0.051,0.023-0.1,0.051-0.148,0.08c-0.04,0.024-0.078,0.047-0.115,0.074  c-0.039,0.029-0.075,0.06-0.111,0.093c-0.04,0.036-0.079,0.072-0.114,0.112c-0.013,0.015-0.029,0.025-0.042,0.041L8.438,42.217  c-0.53,0.636-0.444,1.582,0.192,2.112C8.91,44.563,9.25,44.677,9.589,44.677z"/></svg>