<?xml version="1.0" ?><svg style="enable-background:new 0 0 128 128;" version="1.0" viewBox="0 0 128 128" xml:space="preserve" xmlns="http://www.w3.org/2000/svg" xmlns:xlink="http://www.w3.org/1999/xlink"><style type="text/css">
	.st0{display:none;}
	.st1{display:inline;}
	.st2{fill:none;stroke:#000000;stroke-width:0.1;stroke-miterlimit:10;}
	.st3{fill:none;stroke:#020202;stroke-width:4;stroke-linecap:round;stroke-linejoin:round;stroke-miterlimit:10;}
	.st4{fill:none;stroke:#000000;stroke-width:4;stroke-linejoin:round;stroke-miterlimit:10;}
	.st5{fill:none;stroke:#000000;stroke-width:4;stroke-linecap:round;stroke-linejoin:round;stroke-miterlimit:10;}
	.st6{fill:none;stroke:#010101;stroke-width:4;stroke-linecap:round;stroke-linejoin:round;stroke-miterlimit:10;}
	.st7{fill:none;stroke:#010101;stroke-width:4;stroke-linejoin:round;stroke-miterlimit:10;}
	.st8{fill:none;stroke:#020202;stroke-width:4;stroke-linecap:round;stroke-linejoin:round;stroke-dasharray:4.1311,8.2622;}
	.st9{fill:none;stroke:#020202;stroke-width:4;stroke-linejoin:round;stroke-miterlimit:10;}
	.st10{fill:none;stroke:#000000;stroke-width:4;stroke-linejoin:round;}
	.st11{fill:none;stroke:#000000;stroke-width:4;stroke-linejoin:round;stroke-dasharray:3.5286,1.7643;}
	.st12{fill:#010101;stroke:#000000;stroke-width:4;stroke-linecap:round;stroke-linejoin:round;stroke-miterlimit:10;}
</style><g class="st0" id="Layer_1"><g class="st1" id="XMLID_1939_"><rect class="st2" height="128" id="XMLID_2002_" width="128"/><line class="st2" id="XMLID_2001_" x1="0" x2="128" y1="124" y2="124"/><line class="st2" id="XMLID_2000_" x1="0" x2="128" y1="120" y2="120"/><line class="st2" id="XMLID_1999_" x1="0" x2="128" y1="116" y2="116"/><line class="st2" id="XMLID_1998_" x1="0" x2="128" y1="112" y2="112"/><line class="st2" id="XMLID_1997_" x1="0" x2="128" y1="108" y2="108"/><line class="st2" id="XMLID_1996_" x1="0" x2="128" y1="104" y2="104"/><line class="st2" id="XMLID_1995_" x1="0" x2="128" y1="100" y2="100"/><line class="st2" id="XMLID_1994_" x1="0" x2="128" y1="96" y2="96"/><line class="st2" id="XMLID_1993_" x1="0" x2="128" y1="92" y2="92"/><line class="st2" id="XMLID_1992_" x1="0" x2="128" y1="88" y2="88"/><line class="st2" id="XMLID_1991_" x1="0" x2="128" y1="84" y2="84"/><line class="st2" id="XMLID_1990_" x1="0" x2="128" y1="80" y2="80"/><line class="st2" id="XMLID_1989_" x1="0" x2="128" y1="76" y2="76"/><line class="st2" id="XMLID_1988_" x1="0" x2="128" y1="72" y2="72"/><line class="st2" id="XMLID_1987_" x1="0" x2="128" y1="68" y2="68"/><line class="st2" id="XMLID_1986_" x1="0" x2="128" y1="64" y2="64"/><line class="st2" id="XMLID_1985_" x1="0" x2="128" y1="60" y2="60"/><line class="st2" id="XMLID_1984_" x1="0" x2="128" y1="56" y2="56"/><line class="st2" id="XMLID_1983_" x1="0" x2="128" y1="52" y2="52"/><line class="st2" id="XMLID_1982_" x1="0" x2="128" y1="48" y2="48"/><line class="st2" id="XMLID_1981_" x1="0" x2="128" y1="44" y2="44"/><line class="st2" id="XMLID_1980_" x1="0" x2="128" y1="40" y2="40"/><line class="st2" id="XMLID_1979_" x1="0" x2="128" y1="36" y2="36"/><line class="st2" id="XMLID_1978_" x1="0" x2="128" y1="32" y2="32"/><line class="st2" id="XMLID_1977_" x1="0" x2="128" y1="28" y2="28"/><line class="st2" id="XMLID_1976_" x1="0" x2="128" y1="24" y2="24"/><line class="st2" id="XMLID_1975_" x1="0" x2="128" y1="20" y2="20"/><line class="st2" id="XMLID_1974_" x1="0" x2="128" y1="16" y2="16"/><line class="st2" id="XMLID_1973_" x1="0" x2="128" y1="12" y2="12"/><line class="st2" id="XMLID_1972_" x1="0" x2="128" y1="8" y2="8"/><line class="st2" id="XMLID_1971_" x1="0" x2="128" y1="4" y2="4"/><line class="st2" id="XMLID_1970_" x1="124" x2="124" y1="0" y2="128"/><line class="st2" id="XMLID_1969_" x1="120" x2="120" y1="0" y2="128"/><line class="st2" id="XMLID_1968_" x1="116" x2="116" y1="0" y2="128"/><line class="st2" id="XMLID_1967_" x1="112" x2="112" y1="0" y2="128"/><line class="st2" id="XMLID_1966_" x1="108" x2="108" y1="0" y2="128"/><line class="st2" id="XMLID_1965_" x1="104" x2="104" y1="0" y2="128"/><line class="st2" id="XMLID_1964_" x1="100" x2="100" y1="0" y2="128"/><line class="st2" id="XMLID_1963_" x1="96" x2="96" y1="0" y2="128"/><line class="st2" id="XMLID_1962_" x1="92" x2="92" y1="0" y2="128"/><line class="st2" id="XMLID_1961_" x1="88" x2="88" y1="0" y2="128"/><line class="st2" id="XMLID_1960_" x1="84" x2="84" y1="0" y2="128"/><line class="st2" id="XMLID_1959_" x1="80" x2="80" y1="0" y2="128"/><line class="st2" id="XMLID_1958_" x1="76" x2="76" y1="0" y2="128"/><line class="st2" id="XMLID_1957_" x1="72" x2="72" y1="0" y2="128"/><line class="st2" id="XMLID_1956_" x1="68" x2="68" y1="0" y2="128"/><line class="st2" id="XMLID_1955_" x1="64" x2="64" y1="0" y2="128"/><line class="st2" id="XMLID_1954_" x1="60" x2="60" y1="0" y2="128"/><line class="st2" id="XMLID_1953_" x1="56" x2="56" y1="0" y2="128"/><line class="st2" id="XMLID_1952_" x1="52" x2="52" y1="0" y2="128"/><line class="st2" id="XMLID_1951_" x1="48" x2="48" y1="0" y2="128"/><line class="st2" id="XMLID_1950_" x1="44" x2="44" y1="0" y2="128"/><line class="st2" id="XMLID_1949_" x1="40" x2="40" y1="0" y2="128"/><line class="st2" id="XMLID_1948_" x1="36" x2="36" y1="0" y2="128"/><line class="st2" id="XMLID_1947_" x1="32" x2="32" y1="0" y2="128"/><line class="st2" id="XMLID_1946_" x1="28" x2="28" y1="0" y2="128"/><line class="st2" id="XMLID_1945_" x1="24" x2="24" y1="0" y2="128"/><line class="st2" id="XMLID_1944_" x1="20" x2="20" y1="0" y2="128"/><line class="st2" id="XMLID_1943_" x1="16" x2="16" y1="0" y2="128"/><line class="st2" id="XMLID_1942_" x1="12" x2="12" y1="0" y2="128"/><line class="st2" id="XMLID_1941_" x1="8" x2="8" y1="0" y2="128"/><line class="st2" id="XMLID_1940_" x1="4" x2="4" y1="0" y2="128"/></g></g><g class="st0" id="Layer_2"/><g id="Layer_3"><g id="XMLID_2168_"><g id="XMLID_2164_"><g id="Layer_2_2_"><g id="XMLID_2165_"><path class="st5" d="M112.3,57.6v-3.1h-10.6c-1.2-5.2-3.2-10.1-6-14.5l7.5-7.5L89.8,19.1l-7.5,7.5       c-4.4-2.8-9.2-4.9-14.5-6V10h-19v10.6c-5.2,1.2-10.1,3.2-14.5,6l-7.5-7.5L13.4,32.5l7.5,7.5c-2.8,4.4-4.9,9.2-6,14.5H4.3v19       h10.6c1.2,5.2,3.2,10.1,6,14.5l-7.5,7.4l13.4,13.4l7.5-7.5c4.4,2.8,9.2,4.9,14.5,6V118h5.7 M53.4,79.7       c-6.2-1.9-10.9-7.3-11.6-14.2c-0.9-9.1,5.7-17.2,14.8-18.1c6.4-0.6,12.3,2.4,15.6,7.5" id="XMLID_2166_"/></g></g></g><g id="XMLID_2468_"><line class="st5" id="XMLID_2474_" x1="60.8" x2="123.7" y1="108.3" y2="108.3"/><g id="XMLID_2469_"><path class="st5" d="M119.6,117.9H64.7c-2.3,0-4.1-1.8-4.1-4.1V67c0-2.3,1.8-4.1,4.1-4.1h54.9      c2.3,0,4.1,1.8,4.1,4.1v46.8C123.7,116.1,121.8,117.9,119.6,117.9z" id="XMLID_2473_"/><line class="st5" id="XMLID_2472_" x1="60.8" x2="123.7" y1="72.3" y2="72.3"/><polyline class="st5" id="XMLID_2471_" points="76.1,81.2 83.1,88.1 76,95.2     "/><line class="st5" id="XMLID_2470_" x1="92.2" x2="103" y1="95.2" y2="95.2"/></g></g></g></g></svg>