<?xml version="1.0" ?><svg height="62px" version="1.1" viewBox="0 0 62 62" width="62px" xmlns="http://www.w3.org/2000/svg" xmlns:xlink="http://www.w3.org/1999/xlink"><title/><desc/><defs/><g fill="none" fill-rule="evenodd" id="Page-4-Copy" stroke="none" stroke-width="1"><g fill="#000000" id="Adjust-Copy"><path d="M30.459,28 C31.973,28.003 33.234,29.004 33.664,30.375 C33.764,30.693 33.832,31.024 33.833,31.374 C33.832,31.725 33.764,32.056 33.664,32.374 C33.234,33.745 31.973,34.745 30.459,34.749 C28.948,34.745 27.685,33.745 27.255,32.374 C27.155,32.057 27.087,31.725 27.086,31.374 C27.087,31.024 27.156,30.693 27.255,30.375 C27.685,29.005 28.948,28.003 30.459,28 M6.5,32.374 L25.187,32.374 C25.656,34.862 27.833,36.747 30.459,36.747 C33.084,36.747 35.262,34.862 35.732,32.374 L54.504,32.374 C55.055,32.374 55.504,31.926 55.504,31.375 C55.504,30.822 55.055,30.375 54.504,30.375 L35.732,30.375 C35.262,27.886 33.086,26.001 30.459,26.001 C27.833,26.001 25.656,27.886 25.187,30.375 L6.5,30.375 C5.947,30.375 5.5,30.823 5.5,31.375 C5.499,31.926 5.947,32.374 6.5,32.374 M16.7642,18.875 C16.3352,20.245 15.0732,21.245 13.5592,21.249 C12.0482,21.246 10.7852,20.246 10.3562,18.875 C10.2562,18.557 10.1882,18.226 10.1872,17.875 C10.1872,17.524 10.2562,17.193 10.3552,16.875 C10.7842,15.504 12.0462,14.502 13.5592,14.5 C15.0732,14.502 16.3362,15.503 16.7652,16.875 C16.8642,17.193 16.9332,17.524 16.9332,17.875 C16.9332,18.226 16.8642,18.558 16.7642,18.875 M54.5042,16.875 L18.8342,16.875 C18.3642,14.386 16.1872,12.5 13.5602,12.5 C10.9352,12.5 8.7572,14.384 8.2872,16.875 L6.5002,16.875 C5.9472,16.875 5.5002,17.322 5.5002,17.875 C5.5002,18.428 5.9482,18.875 6.5002,18.875 L8.2872,18.875 C8.7582,21.363 10.9352,23.247 13.5602,23.249 C16.1872,23.247 18.3642,21.363 18.8332,18.875 L54.5042,18.875 C55.0552,18.875 55.5042,18.428 55.5042,17.875 C55.5042,17.322 55.0552,16.875 54.5042,16.875" id="Fill-4"/><path d="M47.3604,48.2466 C45.8474,48.2446 44.5854,47.2446 44.1554,45.8736 C44.0544,45.5576 43.9864,45.2256 43.9854,44.8736 C43.9864,44.5226 44.0544,44.1916 44.1544,43.8756 C44.5844,42.5026 45.8474,41.5026 47.3604,41.4986 C48.8734,41.5026 50.1344,42.5026 50.5644,43.8756 C50.6644,44.1916 50.7324,44.5226 50.7334,44.8736 C50.7324,45.2256 50.6634,45.5576 50.5624,45.8736 C50.1344,47.2446 48.8724,48.2446 47.3604,48.2466 M54.5044,43.8756 L52.6324,43.8756 C52.1644,41.3856 49.9864,39.4986 47.3614,39.4986 C44.7344,39.4986 42.5544,41.3856 42.0884,43.8756 L6.5004,43.8756 C5.9474,43.8756 5.5004,44.3226 5.5004,44.8756 C5.5004,45.4266 5.9484,45.8736 6.5004,45.8736 L42.0864,45.8736 C42.5564,48.3636 44.7344,50.2466 47.3604,50.2466 C49.9844,50.2466 52.1634,48.3616 52.6324,45.8736 L54.5044,45.8736 C55.0544,45.8736 55.5044,45.4266 55.5044,44.8756 C55.5044,44.3226 55.0544,43.8756 54.5044,43.8756" id="Fill-7"/></g></g></svg>