<?xml version="1.0" ?><!DOCTYPE svg  PUBLIC '-//W3C//DTD SVG 1.1//EN'  'http://www.w3.org/Graphics/SVG/1.1/DTD/svg11.dtd'><svg enable-background="new 0 0 100 100" height="100px" id="Layer_1" version="1.1" viewBox="0 0 100 100" width="100px" xml:space="preserve" xmlns="http://www.w3.org/2000/svg" xmlns:xlink="http://www.w3.org/1999/xlink"><g><path d="M40.875,55.076h-8c-0.553,0-1-0.447-1-1v-8c0-0.553,0.447-1,1-1h8c0.553,0,1,0.447,1,1v8   C41.875,54.629,41.428,55.076,40.875,55.076z M33.875,53.076h6v-6h-6V53.076z"/></g><g><path d="M56.875,70.69h-8c-0.553,0-1-0.447-1-1v-8c0-0.553,0.447-1,1-1h8c0.553,0,1,0.447,1,1v8   C57.875,70.243,57.428,70.69,56.875,70.69z M49.875,68.69h6v-6h-6V68.69z"/></g><g><path d="M81.875,41.634h-8c-0.553,0-1-0.447-1-1v-8c0-0.553,0.447-1,1-1h8c0.553,0,1,0.447,1,1v8   C82.875,41.187,82.428,41.634,81.875,41.634z M74.875,39.634h6v-6h-6V39.634z"/></g><g><path d="M16.874,75.161c-0.225,0-0.451-0.075-0.638-0.23c-0.425-0.354-0.483-0.983-0.131-1.408l14.512-17.476   c0.354-0.425,0.983-0.484,1.408-0.131c0.425,0.353,0.483,0.983,0.131,1.408L17.645,74.8C17.446,75.038,17.161,75.161,16.874,75.161   z"/></g><g><path d="M46.832,60.793c-0.252,0-0.504-0.095-0.698-0.284l-4.141-4.039c-0.396-0.386-0.403-1.019-0.018-1.414   c0.388-0.396,1.02-0.401,1.414-0.018l4.141,4.039c0.396,0.386,0.403,1.019,0.018,1.414C47.352,60.692,47.092,60.793,46.832,60.793z   "/></g><g><path d="M58.779,59.829c-0.231,0-0.464-0.079-0.652-0.242c-0.419-0.36-0.466-0.991-0.105-1.41L71.68,42.302   c0.36-0.42,0.992-0.466,1.41-0.105c0.419,0.36,0.466,0.991,0.105,1.41L59.537,59.481C59.34,59.711,59.06,59.829,58.779,59.829z"/></g><g><path d="M87.375,80.161h-74.75c-0.553,0-1-0.447-1-1V28.853c0-0.553,0.447-1,1-1s1,0.447,1,1v49.309h73.75c0.553,0,1,0.447,1,1   S87.928,80.161,87.375,80.161z"/></g></svg>