<?xml version="1.0" ?><svg viewBox="0 0 64 64" xmlns="http://www.w3.org/2000/svg"><title/><g data-name="Layer 4" id="Layer_4"><path d="M13,16C7.7,16,2,17.25,2,20V44c0,2.75,5.7,4,11,4s11-1.25,11-4V20C24,17.25,18.3,16,13,16Zm0,2c5.8,0,8.79,1.43,9,2-.21.57-3.2,2-9,2s-8.84-1.46-9-2H4C4.16,19.46,7.16,18,13,18ZM4,22.43C6.13,23.5,9.64,24,13,24s6.87-.5,9-1.57V26c-.15.56-3.15,2-9,2s-8.85-1.46-9-2Zm0,6C6.13,29.5,9.64,30,13,30s6.87-.5,9-1.57V32c-.15.56-3.15,2-9,2s-8.85-1.46-9-2Zm0,6C6.13,35.5,9.64,36,13,36s6.87-.5,9-1.57V38c-.15.56-3.15,2-9,2s-8.85-1.46-9-2ZM13,46c-5.85,0-8.85-1.46-9-2V40.43C6.13,41.5,9.64,42,13,42s6.87-.5,9-1.57V44C21.85,44.54,18.85,46,13,46Z"/><path d="M59.33,4.78H49.84a.59.59,0,0,1-.35-.12L47.83,3.48A2.6,2.6,0,0,0,46.33,3H42.67A2.73,2.73,0,0,0,40,5.78V18.22A2.73,2.73,0,0,0,42.67,21H59.33A2.73,2.73,0,0,0,62,18.22V7.56A2.73,2.73,0,0,0,59.33,4.78ZM60,18.22a.73.73,0,0,1-.67.78H42.67a.73.73,0,0,1-.67-.78V5.78A.73.73,0,0,1,42.67,5h3.66a.6.6,0,0,1,.34.11l1.66,1.18a2.59,2.59,0,0,0,1.51.49h9.49a.73.73,0,0,1,.67.78Z"/><path d="M59.33,24.78H49.84a.59.59,0,0,1-.35-.12l-1.66-1.18a2.6,2.6,0,0,0-1.5-.48H42.67A2.73,2.73,0,0,0,40,25.78V38.22A2.73,2.73,0,0,0,42.67,41H59.33A2.73,2.73,0,0,0,62,38.22V27.56A2.73,2.73,0,0,0,59.33,24.78ZM60,38.22a.73.73,0,0,1-.67.78H42.67a.73.73,0,0,1-.67-.78V25.78a.73.73,0,0,1,.67-.78h3.66a.6.6,0,0,1,.34.11l1.66,1.18a2.59,2.59,0,0,0,1.51.49h9.49a.73.73,0,0,1,.67.78Z"/><path d="M59.33,44.78H49.84a.59.59,0,0,1-.35-.12l-1.66-1.18a2.6,2.6,0,0,0-1.5-.48H42.67A2.73,2.73,0,0,0,40,45.78V58.22A2.73,2.73,0,0,0,42.67,61H59.33A2.73,2.73,0,0,0,62,58.22V47.56A2.73,2.73,0,0,0,59.33,44.78ZM60,58.22a.73.73,0,0,1-.67.78H42.67a.73.73,0,0,1-.67-.78V45.78a.73.73,0,0,1,.67-.78h3.66a.6.6,0,0,1,.34.11l1.66,1.18a2.59,2.59,0,0,0,1.51.49h9.49a.73.73,0,0,1,.67.78Z"/><path d="M34,13h3a1,1,0,0,0,0-2H34a2.94,2.94,0,0,0-3,2.86V31H27a1,1,0,0,0,0,2h4V50.14A2.94,2.94,0,0,0,34,53h3a1,1,0,0,0,0-2H34a.94.94,0,0,1-1-.86V33h4a1,1,0,0,0,0-2H33V13.86A.94.94,0,0,1,34,13Z"/></g></svg>