<?xml version="1.0" ?><svg id="Layer_1" style="enable-background:new 0 0 512 512;" version="1.1" viewBox="0 0 512 512" xml:space="preserve" xmlns="http://www.w3.org/2000/svg" xmlns:xlink="http://www.w3.org/1999/xlink"><path d="M256,6C117.9,6,6,117.9,6,256c0,138.1,111.9,250,250,250s250-111.9,250-250C506,117.9,394.1,6,256,6z   M136,164.6c5.9-4,12.8-6.1,20-6.1H356c8.1,0,15.8,2.7,22.2,7.7l2.1,1.7l-116,81.6l-131-83.2L136,164.6z M122.1,329.6  c-1.4-3.8-2-7.8-2-11.9V194.4c0-6.4,1.7-12.6,4.9-18.1l1.1-1.8l112.2,71.3l-115.2,86.4L122.1,329.6z M383.3,340.9  c-6.8,8-16.8,12.6-27.3,12.6H156c-9.7,0-18.7-3.8-25.5-10.7l-1.6-1.6l118.8-89.5l14,8.9c0.9,0.6,1.9,0.8,2.9,0.8  c1.1,0,2.2-0.3,3.1-1l12.1-8.5l104.9,87.5L383.3,340.9z M391.9,317.6c0,3.1-0.4,6.2-1.2,9.2l-0.8,3.1l-101.3-84.2l98.6-69.4l1,2.1  c2.5,5,3.7,10.3,3.7,15.9V317.6z" id="XMLID_148_"/></svg>