<?xml version="1.0" ?><!DOCTYPE svg  PUBLIC '-//W3C//DTD SVG 1.1//EN'  'http://www.w3.org/Graphics/SVG/1.1/DTD/svg11.dtd'><svg enable-background="new 0 0 30 30" height="30px" id="Layer_1" version="1.1" viewBox="0 0 30 30" width="30px" xml:space="preserve" xmlns="http://www.w3.org/2000/svg" xmlns:xlink="http://www.w3.org/1999/xlink"><path clip-rule="evenodd" d="M14.999,30c-8.284,0-15-6.716-15-15c0-8.284,6.716-15,15-15s15,6.716,15,15  C29.999,23.284,23.283,30,14.999,30z M14.999,2c-7.18,0-13,5.821-13,13c0,7.181,5.82,13,13,13s13-5.819,13-13  C27.999,7.821,22.179,2,14.999,2z M25.999,15.001c-0.989,0.001-1.312,0-2,0c0.153-0.001-0.16,0.001,0-0.001  c0.052,0,0-0.104-0.001-0.156C23.914,9.945,19.917,6,14.999,6C10.08,6,6.083,9.945,6,14.845c-0.003,0.208,0.001,0.156-0.001,0.156  C5.224,15,5.611,15,3.999,15c-0.053,0,0-0.104,0.001-0.156C4.084,8.841,8.976,4,14.999,4c6.022,0,10.915,4.84,10.999,10.842  C25.999,14.896,26.052,15,25.999,15.001z M13.999,8.001l2-0.001v10.184c1.162,0.413,2,1.513,2,2.816c0,1.657-1.343,3-3,3  s-3-1.343-3-3c0-1.304,0.838-2.367,2-2.78V8.001z M14.999,22c0.552,0,1-0.448,1-1c0-0.553-0.448-1-1-1c-0.553,0-1,0.447-1,1  C13.999,21.552,14.446,22,14.999,22z" fill-rule="evenodd"/></svg>