<?xml version="1.0" ?><!DOCTYPE svg  PUBLIC '-//W3C//DTD SVG 1.1//EN'  'http://www.w3.org/Graphics/SVG/1.1/DTD/svg11.dtd'><svg enable-background="new 0 0 210 210" height="210px" id="Слой_1" version="1.1" viewBox="0 0 210 210" width="210px" xml:space="preserve" xmlns="http://www.w3.org/2000/svg" xmlns:xlink="http://www.w3.org/1999/xlink"><g><g><path d="M97.339,104.353H73.39c-3.309,0-6-2.691-6-6V74.404c0-3.309,2.691-6,6-6h23.949c3.309,0,6,2.691,6,6    v23.949C103.339,101.662,100.648,104.353,97.339,104.353z M75.39,96.353h19.949V76.404H75.39V96.353z" fill="#474747"/></g><g><path d="M156.234,165.22H54.5c-4.963,0-9-4.038-9-9V54.488c0-4.962,4.037-9,9-9h101.733c4.963,0,9,4.038,9,9    V156.22C165.234,161.183,161.197,165.22,156.234,165.22z M54.5,53.488c-0.542,0-1,0.458-1,1V156.22c0,0.542,0.458,1,1,1h101.733    c0.542,0,1-0.458,1-1V54.488c0-0.542-0.458-1-1-1H54.5z" fill="#474747"/></g><g><g><g><g><path d="M105.366,37.154c-6.618,0-12.002-5.384-12.002-12.003c0-6.618,5.384-12.002,12.002-12.002       s12.003,5.384,12.003,12.002C117.369,31.77,111.985,37.154,105.366,37.154z M105.366,21.149c-2.207,0-4.002,1.795-4.002,4.002       s1.795,4.003,4.002,4.003s4.003-1.796,4.003-4.003S107.574,21.149,105.366,21.149z" fill="#474747"/></g></g><g><rect fill="#474747" height="16.029" width="8" x="101.366" y="33.458"/></g></g><g><g><g><g><path d="M69.064,35.364c-6.618,0-12.003-5.384-12.003-12.002c0-6.619,5.385-12.003,12.003-12.003        s12.003,5.384,12.003,12.003C81.067,29.98,75.682,35.364,69.064,35.364z M69.064,19.359c-2.207,0-4.003,1.796-4.003,4.003        s1.796,4.002,4.003,4.002s4.003-1.795,4.003-4.002S71.271,19.359,69.064,19.359z" fill="#474747"/></g></g><g><rect fill="#474747" height="16.029" width="8" x="65.064" y="31.668"/></g></g><g><g><g><path d="M141.67,37.294c-6.618,0-12.003-5.384-12.003-12.002s5.385-12.002,12.003-12.002        s12.002,5.384,12.002,12.002S148.288,37.294,141.67,37.294z M141.67,21.289c-2.207,0-4.003,1.795-4.003,4.002        s1.796,4.002,4.003,4.002s4.002-1.795,4.002-4.002S143.877,21.289,141.67,21.289z" fill="#474747"/></g></g><g><rect fill="#474747" height="16.029" width="8" x="137.67" y="33.598"/></g></g></g></g><g><g><g><g><path d="M185.569,117.356c-6.618,0-12.002-5.384-12.002-12.002s5.384-12.002,12.002-12.002       s12.003,5.384,12.003,12.002S192.187,117.356,185.569,117.356z M185.569,101.351c-2.207,0-4.002,1.795-4.002,4.002       s1.795,4.002,4.002,4.002s4.003-1.795,4.003-4.002S187.776,101.351,185.569,101.351z" fill="#474747"/></g></g><g><rect fill="#474747" height="8" width="16.028" x="161.234" y="101.354"/></g></g><g><g><g><g><path d="M187.36,81.053c-6.618,0-12.003-5.384-12.003-12.002s5.385-12.002,12.003-12.002        s12.002,5.384,12.002,12.002S193.978,81.053,187.36,81.053z M187.36,65.048c-2.207,0-4.003,1.795-4.003,4.002        s1.796,4.002,4.003,4.002s4.002-1.795,4.002-4.002S189.567,65.048,187.36,65.048z" fill="#474747"/></g></g><g><rect fill="#474747" height="8" width="16.029" x="163.024" y="65.05"/></g></g><g><g><g><path d="M185.429,153.659c-6.618,0-12.003-5.384-12.003-12.002s5.385-12.002,12.003-12.002        s12.002,5.384,12.002,12.002S192.047,153.659,185.429,153.659z M185.429,137.654c-2.207,0-4.003,1.795-4.003,4.002        s1.796,4.002,4.003,4.002s4.002-1.795,4.002-4.002S187.636,137.654,185.429,137.654z" fill="#474747"/></g></g><g><rect fill="#474747" height="8" width="16.029" x="161.093" y="137.657"/></g></g></g></g><g><g><g><g><path d="M105.366,197.558c-6.618,0-12.002-5.384-12.002-12.002s5.384-12.002,12.002-12.002       s12.003,5.384,12.003,12.002S111.985,197.558,105.366,197.558z M105.366,181.553c-2.207,0-4.002,1.795-4.002,4.002       s1.795,4.002,4.002,4.002s4.003-1.795,4.003-4.002S107.574,181.553,105.366,181.553z" fill="#474747"/></g></g><g><rect fill="#474747" height="16.029" width="8" x="101.366" y="161.22"/></g></g><g><g><g><g><path d="M141.67,199.349c-6.618,0-12.003-5.384-12.003-12.002s5.385-12.002,12.003-12.002        s12.002,5.384,12.002,12.002S148.288,199.349,141.67,199.349z M141.67,183.344c-2.207,0-4.003,1.795-4.003,4.002        s1.796,4.002,4.003,4.002s4.002-1.795,4.002-4.002S143.877,183.344,141.67,183.344z" fill="#474747"/></g></g><g><rect fill="#474747" height="16.029" width="8" x="137.67" y="163.01"/></g></g><g><g><g><path d="M69.064,197.418c-6.618,0-12.003-5.384-12.003-12.002s5.385-12.002,12.003-12.002        s12.003,5.384,12.003,12.002S75.682,197.418,69.064,197.418z M69.064,181.413c-2.207,0-4.003,1.795-4.003,4.002        s1.796,4.002,4.003,4.002s4.003-1.795,4.003-4.002S71.271,181.413,69.064,181.413z" fill="#474747"/></g></g><g><rect fill="#474747" height="16.029" width="8" x="65.064" y="161.08"/></g></g></g></g><g><g><g><g><path d="M25.165,117.356c-6.618,0-12.003-5.384-12.003-12.002s5.385-12.002,12.003-12.002       s12.002,5.384,12.002,12.002S31.783,117.356,25.165,117.356z M25.165,101.351c-2.207,0-4.003,1.795-4.003,4.002       s1.796,4.002,4.003,4.002s4.002-1.795,4.002-4.002S27.372,101.351,25.165,101.351z" fill="#474747"/></g></g><g><rect fill="#474747" height="8" width="16.028" x="33.472" y="101.354"/></g></g><g><g><g><g><path d="M23.374,153.659c-6.618,0-12.002-5.384-12.002-12.002s5.384-12.002,12.002-12.002        s12.003,5.384,12.003,12.002S29.992,153.659,23.374,153.659z M23.374,137.654c-2.207,0-4.002,1.795-4.002,4.002        s1.795,4.002,4.002,4.002s4.003-1.795,4.003-4.002S25.581,137.654,23.374,137.654z" fill="#474747"/></g></g><g><rect fill="#474747" height="8" width="16.029" x="31.681" y="137.657"/></g></g><g><g><g><path d="M25.305,81.053c-6.618,0-12.003-5.384-12.003-12.002s5.385-12.002,12.003-12.002        s12.003,5.384,12.003,12.002S31.923,81.053,25.305,81.053z M25.305,65.048c-2.207,0-4.003,1.795-4.003,4.002        s1.796,4.002,4.003,4.002s4.003-1.795,4.003-4.002S27.512,65.048,25.305,65.048z" fill="#474747"/></g></g><g><rect fill="#474747" height="8" width="16.029" x="33.612" y="65.05"/></g></g></g></g></g></svg>