<?xml version="1.0" ?><svg enable-background="new 0 0 24 24" id="Layer_1" version="1.1" viewBox="0 0 24 24" xml:space="preserve" xmlns="http://www.w3.org/2000/svg" xmlns:xlink="http://www.w3.org/1999/xlink"><g><path d="M15.5,0.5H19   c0.8284264,0,1.5,0.6715729,1.5,1.5v3.5" fill="none" stroke="#303C42" stroke-linecap="round" stroke-linejoin="round" stroke-miterlimit="10"/><path d="M15.5,23.5H19   c0.8284264,0,1.5-0.6715736,1.5-1.5v-3.5" fill="none" stroke="#303C42" stroke-linecap="round" stroke-linejoin="round" stroke-miterlimit="10"/><path d="M8.5,0.5H5   C4.1715727,0.5,3.5,1.1715729,3.5,2v3.5" fill="none" stroke="#303C42" stroke-linecap="round" stroke-linejoin="round" stroke-miterlimit="10"/><path d="M8.5,23.5H5   c-0.8284273,0-1.5-0.6715736-1.5-1.5v-3.5" fill="none" stroke="#303C42" stroke-linecap="round" stroke-linejoin="round" stroke-miterlimit="10"/><line fill="none" stroke="#303C42" stroke-linecap="round" stroke-linejoin="round" stroke-miterlimit="10" x1="3.5" x2="20.5" y1="11.5" y2="11.5"/><circle cx="12" cy="4.75" fill="none" id="XMLID_9_" r="1.75" stroke="#303C42" stroke-linecap="round" stroke-linejoin="round" stroke-miterlimit="10"/><path d="   M12,8c-1.1681185,0-2.2527857,0.3957825-3.1643724,1.0702639C8.6205616,9.2293901,8.5,9.5123901,8.5,9.8044796V15H10v6h4v-6h1.5   V9.8044796c0-0.2920895-0.1205616-0.5750895-0.3356276-0.7342157C14.2527857,8.3957825,13.1681185,8,12,8z" fill="none" id="XMLID_1408_" stroke="#303C42" stroke-linecap="round" stroke-linejoin="round" stroke-miterlimit="10"/></g><g/><g/><g/><g/><g/><g/><g/><g/><g/><g/><g/><g/><g/><g/><g/></svg>