<?xml version="1.0" ?><svg id="Layer_1" style="enable-background:new 0 0 70 70;" version="1.1" viewBox="0 0 70 70" xml:space="preserve" xmlns="http://www.w3.org/2000/svg" xmlns:xlink="http://www.w3.org/1999/xlink"><style type="text/css">
	.st0{stroke:#2A3D4F;stroke-width:2;stroke-linecap:round;stroke-linejoin:round;stroke-miterlimit:10;}
	.st1{fill:#2A3D4F;}
</style><g><g><g><g><path d="M59,33.8271484H44.5800781c-0.5527344,0-1-0.4472656-1-1v-8.2587891      c0-2.3046875,2.0009766-4.1796875,4.4599609-4.1796875c0.3369141,0,0.6513672,0.1699219,0.8369141,0.4521484l2.921875,4.4589844      l2.9033203-4.4570313c0.1845703-0.2832031,0.5-0.4541016,0.8378906-0.4541016c2.4589844,0,4.4599609,1.875,4.4599609,4.1796875      v8.2587891C60,33.3798828,59.5527344,33.8271484,59,33.8271484z M45.5800781,31.8271484H58v-7.2587891      c0-1.046875-0.8369141-1.9238281-1.9492188-2.1328125l-3.4121094,5.2382813      c-0.1845703,0.2832031-0.4990234,0.4541016-0.8369141,0.4541016h-0.0009766      c-0.3369141,0-0.6513672-0.1699219-0.8359375-0.4521484l-3.4345703-5.2402344      c-1.1123047,0.2089844-1.9501953,1.0859375-1.9501953,2.1328125V31.8271484z"/></g></g><g><g><path d="M25.4199219,59.9931641H11c-0.5527344,0-1-0.4472656-1-1V50.734375      c0-2.3037109,2.0009766-4.1787109,4.4599609-4.1787109c0.3369141,0,0.6513672,0.1699219,0.8359375,0.4521484      l2.9228516,4.4580078l2.9033203-4.4560547c0.1845703-0.2832031,0.5-0.4541016,0.8378906-0.4541016      c2.4589844,0,4.4599609,1.875,4.4599609,4.1787109v8.2587891      C26.4199219,59.5458984,25.9726563,59.9931641,25.4199219,59.9931641z M12,57.9931641h12.4199219V50.734375      c0-1.0458984-0.8369141-1.9228516-1.9492188-2.1318359l-3.4121094,5.2373047      c-0.1845703,0.2832031-0.4990234,0.4541016-0.8369141,0.4541016h-0.0009766      c-0.3369141,0-0.6513672-0.1699219-0.8359375-0.4521484l-3.4345703-5.2392578C12.8378906,48.8105469,12,49.6875,12,50.734375      V57.9931641z"/></g></g><g><g><path d="M51.7900391,19.0791016c-2.5029297,0-4.5400391-2.0361328-4.5400391-4.5390625S49.2871094,10,51.7900391,10      s4.5400391,2.0371094,4.5400391,4.5400391S54.2929688,19.0791016,51.7900391,19.0791016z M51.7900391,12      C50.3896484,12,49.25,13.1396484,49.25,14.5400391s1.1396484,2.5390625,2.5400391,2.5390625      s2.5400391-1.1386719,2.5400391-2.5390625S53.1904297,12,51.7900391,12z"/></g></g><g><g><path d="M18.2099609,45.2460938c-2.5029297,0-4.5400391-2.0371094-4.5400391-4.5400391s2.0371094-4.5390625,4.5400391-4.5390625      S22.75,38.203125,22.75,40.7060547S20.7128906,45.2460938,18.2099609,45.2460938z M18.2099609,38.1669922      c-1.4003906,0-2.5400391,1.1386719-2.5400391,2.5390625s1.1396484,2.5400391,2.5400391,2.5400391      S20.75,42.1064453,20.75,40.7060547S19.6103516,38.1669922,18.2099609,38.1669922z"/></g></g></g><g><g><g><g><path d="M14.1425781,32.8369141c-0.0546875,0-0.1113281-0.0048828-0.1679688-0.0136719       c-0.5439453-0.0927734-0.9111328-0.6083984-0.8193359-1.1533203       C15.1914063,19.625,26.6513672,11.4814453,38.6982422,13.5146484l2.0410156,0.3447266       c0.5439453,0.0917969,0.9111328,0.6083984,0.8193359,1.1533203c-0.0927734,0.5429688-0.5986328,0.9042969-1.1533203,0.8193359       l-2.0410156-0.3447266c-10.9501953-1.8554688-21.3837891,5.5566406-23.2363281,16.5166016       C15.0449219,32.4921875,14.6220703,32.8369141,14.1425781,32.8369141z"/></g></g><g><g><path d="M36.7275391,18.9785156c-0.2910156,0-0.578125-0.1259766-0.7763672-0.3681641       c-0.3486328-0.4287109-0.2841797-1.0585938,0.1435547-1.4072266l3.0703125-2.5009766l-2.5009766-3.0703125       c-0.3486328-0.4287109-0.2841797-1.0585938,0.1435547-1.4072266c0.4296875-0.3496094,1.0576172-0.2822266,1.4072266,0.1435547       l3.1328125,3.8457031c0.3486328,0.4287109,0.2841797,1.0585938-0.1435547,1.4072266l-3.8457031,3.1328125       C37.1728516,18.9052734,36.9492188,18.9785156,36.7275391,18.9785156z"/></g></g></g><g><g><path d="M34.8369141,56.4482422c-1.2519531,0-2.5205078-0.1044922-3.7958984-0.3193359      c-0.5439453-0.0927734-0.9111328-0.6083984-0.8193359-1.1533203c0.0917969-0.5429688,0.5976563-0.9072266,1.1533203-0.8193359      c11.0996094,1.875,21.65625-5.5097656,23.5087891-16.4707031c0.0927734-0.5429688,0.5986328-0.9072266,1.1533203-0.8193359      c0.5439453,0.0927734,0.9111328,0.6083984,0.8193359,1.1533203      C55.0332031,48.8056641,45.5566406,56.4482422,34.8369141,56.4482422z"/></g></g><g><g><path d="M34.3330078,60c-0.2910156,0-0.5800781-0.1259766-0.7773438-0.3701172l-3.125-3.8515625      c-0.1669922-0.2060547-0.2460938-0.4697266-0.2177734-0.7333984c0.0273438-0.2636719,0.1582031-0.5058594,0.3642578-0.6728516      l3.8525391-3.1240234c0.4306641-0.3486328,1.0595703-0.2832031,1.40625,0.1464844      c0.3486328,0.4287109,0.2822266,1.0585938-0.1464844,1.40625l-3.0751953,2.4941406l2.4941406,3.0751953      c0.3486328,0.4287109,0.2822266,1.0585938-0.1464844,1.40625C34.7763672,59.9267578,34.5537109,60,34.3330078,60z"/></g></g></g></g></svg>